<svg width="20" height="18" viewBox="0 0 20 18" fill="none" xmlns="http://www.w3.org/2000/svg">
<path d="M5.75 9H6M6 9H6.25M6 9V8.75M6 9V9.25M6 9L5.75852 9.0647M6 9L6.24148 8.9353M6 9L5.93529 8.75852M6 9L6.0647 9.24148M6 9L5.78353 9.12502M6 9L6.21654 8.87502M6 9L5.87503 8.78351M6 9L6.12503 9.21653M6 9L5.82342 9.17685M6 9L6.17697 8.8233M6 9L5.82342 8.8233M6 9L6.17697 9.17685M6 9L5.87504 9.21663M6 9L6.12504 8.78362M6 9L5.78353 8.87512M6 9L6.21654 9.12512M6 9L5.93549 9.24165M6 9L6.0649 8.75869M6 9L5.75872 8.93546M6 9L6.24168 9.06487M6 9L5.75202 9.03257M6 9L6.24775 8.96731M6 9L5.96725 8.75208M6 9L6.03252 9.2478M6 9L5.76891 9.09561M6 9L6.23085 8.90427M6 9L5.90421 8.76897M6 9L6.09555 9.23091M6 9L5.80158 9.15215M6 9L6.19826 8.84777M6 9L5.84773 8.80162M6 9L6.15211 9.19829M6 9L5.8479 9.19833M6 9L6.15228 8.80165M6 9L5.80175 8.8478M6 9L6.19843 9.15218M6 9L5.90427 9.23103M6 9L6.09561 8.76909M6 9L5.76897 8.90439M6 9L6.23091 9.09573M6 9L5.96747 9.24794M6 9L6.03273 8.75222M6 9L5.75224 8.96745M6 9L6.24796 9.03271M9.75 9H10M10 9H10.25M10 9V8.75M10 9V9.25M10 9L9.75852 9.0647M10 9L10.2415 8.9353M10 9L9.9353 8.75852M10 9L10.0647 9.24148M10 9L9.78353 9.12502M10 9L10.2165 8.87502M10 9L9.87503 8.78351M10 9L10.125 9.21653M10 9L9.82342 9.17685M10 9L10.177 8.8233M10 9L9.82342 8.8233M10 9L10.177 9.17685M10 9L9.87504 9.21663M10 9L10.125 8.78362M10 9L9.78353 8.87512M10 9L10.2165 9.12512M10 9L9.93549 9.24165M10 9L10.0649 8.75869M10 9L9.75872 8.93546M10 9L10.2417 9.06487M10 9L9.75202 9.03257M10 9L10.2477 8.96731M10 9L9.96725 8.75208M10 9L10.0325 9.2478M10 9L9.76891 9.09561M10 9L10.2309 8.90427M10 9L9.90421 8.76897M10 9L10.0956 9.23091M10 9L9.80158 9.15215M10 9L10.1983 8.84777M10 9L9.84773 8.80162M10 9L10.1521 9.19829M10 9L9.8479 9.19833M10 9L10.1523 8.80165M10 9L9.80175 8.8478M10 9L10.1984 9.15218M10 9L9.90427 9.23103M10 9L10.0956 8.76909M10 9L9.76897 8.90439M10 9L10.2309 9.09573M10 9L9.96747 9.24794M10 9L10.0327 8.75222M10 9L9.75224 8.96745M10 9L10.248 9.03271M13.75 9H14M14 9H14.25M14 9V8.75M14 9V9.25M14 9L13.7585 9.0647M14 9L14.2415 8.9353M14 9L13.9353 8.75852M14 9L14.0647 9.24148M14 9L13.7835 9.12502M14 9L14.2165 8.87502M14 9L13.875 8.78351M14 9L14.125 9.21653M14 9L13.8234 9.17685M14 9L14.177 8.8233M14 9L13.8234 8.8233M14 9L14.177 9.17685M14 9L13.875 9.21663M14 9L14.125 8.78362M14 9L13.7835 8.87512M14 9L14.2165 9.12512M14 9L13.9355 9.24165M14 9L14.0649 8.75869M14 9L13.7587 8.93546M14 9L14.2417 9.06487M14 9L13.752 9.03257M14 9L14.2477 8.96731M14 9L13.9673 8.75208M14 9L14.0325 9.2478M14 9L13.7689 9.09561M14 9L14.2309 8.90427M14 9L13.9042 8.76897M14 9L14.0956 9.23091M14 9L13.8016 9.15215M14 9L14.1983 8.84777M14 9L13.8477 8.80162M14 9L14.1521 9.19829M14 9L13.8479 9.19833M14 9L14.1523 8.80165M14 9L13.8018 8.8478M14 9L14.1984 9.15218M14 9L13.9043 9.23103M14 9L14.0956 8.76909M14 9L13.769 8.90439M14 9L14.2309 9.09573M14 9L13.9675 9.24794M14 9L14.0327 8.75222M14 9L13.7522 8.96745M14 9L14.248 9.03271M10 1C5 1 1 4.6 1 9C1 10.3 1.4 11.5 2 12.6C2.2 12.9 2.2 13.2 2.1 13.5L1.1 16C0.9 16.6 1.4 17.2 2 16.9L4.7 15.8C5 15.7 5.3 15.7 5.5 15.8C6.8 16.6 8.4 17 10 17C15 17 19 13.4 19 9C19 4.6 15 1 10 1Z" stroke="white" stroke-width="1.5" stroke-linecap="round" stroke-linejoin="round"/>
</svg>
