<svg width="22" height="16" viewBox="0 0 22 16" fill="none" xmlns="http://www.w3.org/2000/svg">
<path d="M1.22444 8.70024C0.925187 8.30024 0.925187 7.60024 1.22444 7.20024C2.42145 5.40024 5.81297 1.00024 11 1.00024C16.187 1.00024 19.5786 5.50024 20.7756 7.30024C21.0748 7.70024 21.0748 8.40024 20.7756 8.80024C19.5786 10.6002 16.187 15.0002 11 15.0002C5.81297 15.0002 2.42145 10.5002 1.22444 8.70024Z" stroke="#555563" stroke-width="1.5" stroke-miterlimit="10" stroke-linecap="round" stroke-linejoin="round"/>
<path d="M11 11.0002C12.6569 11.0002 14 9.6571 14 8.00024C14 6.34339 12.6569 5.00024 11 5.00024C9.34315 5.00024 8 6.34339 8 8.00024C8 9.6571 9.34315 11.0002 11 11.0002Z" stroke="#555563" stroke-width="1.5" stroke-miterlimit="10" stroke-linecap="round" stroke-linejoin="round"/>
</svg>
