<svg width="12" height="16" viewBox="0 0 12 16" fill="none" xmlns="http://www.w3.org/2000/svg">
<path d="M6.96552 1.21865L1.84581 8.31393C1.73903 8.46191 1.68564 8.53589 1.68755 8.59767C1.68921 8.65145 1.71458 8.70167 1.75676 8.73466C1.80521 8.77254 1.89598 8.77254 2.07751 8.77254H4.2128C4.31309 8.77254 4.36323 8.77254 4.40154 8.79222C4.43523 8.80952 4.46262 8.83713 4.47979 8.87109C4.49931 8.9097 4.49931 8.96024 4.49931 9.06131V14.5869C4.49931 14.8738 4.49931 15.0172 4.54933 15.0696C4.59255 15.1149 4.65601 15.1343 4.71688 15.1208C4.78734 15.1051 4.86629 14.9858 5.0242 14.747L10.1712 6.96548C10.2677 6.81964 10.3159 6.74672 10.3123 6.68625C10.3092 6.63357 10.2834 6.58491 10.2416 6.55307C10.1937 6.51652 10.1067 6.51652 9.93282 6.51652H7.77024C7.66995 6.51652 7.61981 6.51652 7.5815 6.49685C7.54781 6.47955 7.52042 6.45194 7.50325 6.41798C7.48373 6.37937 7.48373 6.32883 7.48373 6.22775V1.38849C7.48373 1.11886 7.48373 0.984042 7.43522 0.931956C7.39327 0.886918 7.33138 0.866634 7.27117 0.878189C7.20154 0.891552 7.12287 1.00058 6.96552 1.21865Z" stroke="white" stroke-width="1.5" stroke-linecap="round" stroke-linejoin="round"/>
</svg>
