<svg width="288" height="240" viewBox="0 0 288 240" fill="none" xmlns="http://www.w3.org/2000/svg">
<g clip-path="url(#clip0_10893_15180)">
<path d="M260.765 20.8C257.823 18.2154 254.692 15.9385 251.499 13.8462L234.344 30.5846C238.038 32.6154 241.607 35.0154 244.925 37.9077C270.156 60.1846 270.845 98.2769 247.116 121.415L230.4 137.723L247.116 154.031L263.833 137.723C279.798 122.215 288.563 100.677 288.063 78.6462C287.499 56.3077 277.857 35.8154 260.828 20.8H260.765Z" fill="#2A2A3C"/>
<path d="M244.237 124.123L185.697 181.169L175.868 190.769C182.129 203.631 179.875 219.508 168.981 230.092L189.892 209.723L261.016 140.431L244.299 124.123H244.237Z" fill="url(#paint0_linear_10893_15180)"/>
<path d="M145.44 24.8L143.875 26.3385L160.591 42.6462L162.156 41.1077C182.504 21.2923 214.372 17.7231 237.725 32.6769L254.755 16.0615C222.073 -7.75384 175.492 -4.4923 145.377 24.8H145.44Z" fill="url(#paint1_linear_10893_15180)"/>
<path d="M226.33 52.8616C212.056 42.4616 191.833 44.8 179.249 57.1077C178.184 58.1539 176.494 58.1539 175.43 57.1077L141.057 23.6308C108.751 -7.81537 56.2226 -7.81537 23.9165 23.6308C22.9148 24.5539 21.9757 25.5385 21.0365 26.5846C-8.63999 58.4616 -6.82434 107.877 25.1061 138.954L117.83 229.292C131.165 242.277 152.89 243.877 167.103 231.754C182.692 218.462 183.256 195.262 168.856 181.231L74.0661 88.8616C69.4331 84.3693 69.4331 77.0462 74.0661 72.5539C78.6991 68.0616 86.1496 68.0616 90.7826 72.5539L168.856 148.677C173.489 153.169 180.939 153.169 185.572 148.677L230.212 105.169C245.238 90.5231 243.924 65.7846 226.205 52.9231L226.33 52.8616ZM185.697 116C181.064 120.492 173.614 120.492 168.981 116L108.501 57.1077C95.1652 44.1231 73.44 42.5231 59.2278 54.6462C43.6383 67.9385 43.0122 91.1385 57.4748 105.169L151.826 197.108C156.334 201.538 157.023 208.8 152.765 213.415C148.195 218.338 140.369 218.523 135.61 213.846L42.0104 122.646C19.5339 100.738 17.4052 65.0462 38.7548 42.0308C61.607 17.4769 100.675 16.7385 124.466 39.9385L185.823 99.7539C190.456 104.246 190.456 111.569 185.823 116.062L185.697 116Z" fill="#2A2A3C"/>
</g>
<defs>
<linearGradient id="paint0_linear_10893_15180" x1="168.981" y1="177.139" x2="260.953" y2="177.139" gradientUnits="userSpaceOnUse">
<stop offset="0.05" stop-color="#2A2A3C" stop-opacity="0.05"/>
<stop offset="0.15" stop-color="#2A2A3C" stop-opacity="0.5"/>
<stop offset="0.25" stop-color="#2A2A3C" stop-opacity="0.7"/>
<stop offset="0.35" stop-color="#2A2A3C" stop-opacity="0.8"/>
<stop offset="0.45" stop-color="#2A2A3C" stop-opacity="0.9"/>
<stop offset="0.55" stop-color="#2A2A3C" stop-opacity="0.95"/>
<stop offset="0.59" stop-color="#2A2A3C" stop-opacity="0.98"/>
<stop offset="0.65" stop-color="#2A2A3C"/>
</linearGradient>
<linearGradient id="paint1_linear_10893_15180" x1="168.981" y1="51.0326" x2="228.727" y2="-9.62823" gradientUnits="userSpaceOnUse">
<stop stop-color="#2A2A3C" stop-opacity="0.15"/>
<stop offset="0.1" stop-color="#2A2A3C" stop-opacity="0.5"/>
<stop offset="0.2" stop-color="#2A2A3C" stop-opacity="0.7"/>
<stop offset="0.3" stop-color="#2A2A3C" stop-opacity="0.8"/>
<stop offset="0.4" stop-color="#2A2A3C" stop-opacity="0.9"/>
<stop offset="0.5" stop-color="#2A2A3C" stop-opacity="0.95"/>
<stop offset="0.54" stop-color="#2A2A3C" stop-opacity="0.98"/>
<stop offset="0.6" stop-color="#2A2A3C"/>
</linearGradient>
<clipPath id="clip0_10893_15180">
<rect width="288" height="240" fill="white"/>
</clipPath>
</defs>
</svg>
