<svg width="35" height="28" viewBox="0 0 35 28" fill="none" xmlns="http://www.w3.org/2000/svg">
<g clip-path="url(#clip0_10834_20696)">
<path d="M31.2375 2.42652C30.885 2.12498 30.51 1.85934 30.1275 1.61523L28.0725 3.56805C28.515 3.80498 28.9425 4.08498 29.34 4.42241C32.3625 7.02139 32.445 11.4655 29.6025 14.165L27.6 16.0675L29.6025 17.9701L31.605 16.0675C33.5175 14.2583 34.5675 11.7455 34.5075 9.17523C34.44 6.56908 33.285 4.17831 31.245 2.42652H31.2375Z" fill="#FC6655"/>
<path d="M29.2575 14.481L22.245 21.1364L21.0675 22.2564C21.8175 23.7569 21.5475 25.6092 20.2425 26.8441L22.7475 24.4677L31.2675 16.3836L29.265 14.481H29.2575Z" fill="url(#paint0_linear_10834_20696)"/>
<path d="M17.4225 2.89311L17.235 3.0726L19.2375 4.97516L19.425 4.79568C21.8625 2.48388 25.68 2.06747 28.4775 3.81209L30.5175 1.87363C26.6025 -0.904835 21.0225 -0.524323 17.415 2.89311H17.4225Z" fill="url(#paint1_linear_10834_20696)"/>
<path d="M27.1125 6.16717C25.4025 4.95383 22.98 5.22665 21.4725 6.66255C21.345 6.7846 21.1425 6.7846 21.015 6.66255L16.8975 2.75691C13.0275 -0.911808 6.735 -0.911808 2.865 2.75691C2.745 2.8646 2.6325 2.97947 2.52 3.10153C-1.035 6.8205 -0.8175 12.5856 3.0075 16.2113L14.115 26.7508C15.7125 28.2656 18.315 28.4523 20.0175 27.0379C21.885 25.4872 21.9525 22.7805 20.2275 21.1436L8.8725 10.3672C8.3175 9.84306 8.3175 8.9887 8.8725 8.4646C9.4275 7.9405 10.32 7.9405 10.875 8.4646L20.2275 17.3456C20.7825 17.8697 21.675 17.8697 22.23 17.3456L27.5775 12.2697C29.3775 10.561 29.22 7.67486 27.0975 6.17435L27.1125 6.16717ZM22.245 13.5333C21.69 14.0574 20.7975 14.0574 20.2425 13.5333L12.9975 6.66255C11.4 5.14768 8.7975 4.96101 7.095 6.37537C5.2275 7.92614 5.1525 10.6328 6.885 12.2697L18.1875 22.9959C18.7275 23.5128 18.81 24.36 18.3 24.8984C17.7525 25.4728 16.815 25.4943 16.245 24.9487L5.0325 14.3087C2.34 11.7528 2.085 7.5887 4.6425 4.90358C7.38 2.03896 12.06 1.95281 14.91 4.65947L22.26 11.6379C22.815 12.162 22.815 13.0164 22.26 13.5405L22.245 13.5333Z" fill="#FC6655"/>
</g>
<defs>
<linearGradient id="paint0_linear_10834_20696" x1="20.2425" y1="20.6661" x2="31.26" y2="20.6661" gradientUnits="userSpaceOnUse">
<stop offset="0.05" stop-color="#FC6655" stop-opacity="0.05"/>
<stop offset="0.15" stop-color="#FC6655" stop-opacity="0.5"/>
<stop offset="0.25" stop-color="#FC6655" stop-opacity="0.7"/>
<stop offset="0.35" stop-color="#FC6655" stop-opacity="0.8"/>
<stop offset="0.45" stop-color="#FC6655" stop-opacity="0.9"/>
<stop offset="0.55" stop-color="#FC6655" stop-opacity="0.95"/>
<stop offset="0.59" stop-color="#FC6655" stop-opacity="0.98"/>
<stop offset="0.65" stop-color="#FC6655"/>
</linearGradient>
<linearGradient id="paint1_linear_10834_20696" x1="20.2425" y1="5.95358" x2="27.2077" y2="-1.30763" gradientUnits="userSpaceOnUse">
<stop stop-color="#FC6655" stop-opacity="0.15"/>
<stop offset="0.1" stop-color="#FC6655" stop-opacity="0.5"/>
<stop offset="0.2" stop-color="#FC6655" stop-opacity="0.7"/>
<stop offset="0.3" stop-color="#FC6655" stop-opacity="0.8"/>
<stop offset="0.4" stop-color="#FC6655" stop-opacity="0.9"/>
<stop offset="0.5" stop-color="#FC6655" stop-opacity="0.95"/>
<stop offset="0.54" stop-color="#FC6655" stop-opacity="0.98"/>
<stop offset="0.6" stop-color="#FC6655"/>
</linearGradient>
<clipPath id="clip0_10834_20696">
<rect width="34.5" height="28" fill="white"/>
</clipPath>
</defs>
</svg>
