<svg width="138" height="28" viewBox="0 0 138 28" fill="none" xmlns="http://www.w3.org/2000/svg">
<g clip-path="url(#clip0_10834_32135)">
<path d="M24.3547 3.72167C24.0798 3.47667 23.7875 3.26083 23.4892 3.0625L21.887 4.64917C22.232 4.84167 22.5653 5.06917 22.8753 5.34333C25.2318 7.455 25.2961 11.0658 23.0799 13.2592L21.5186 14.805L23.0799 16.3508L24.6412 14.805C26.1323 13.335 26.9509 11.2933 26.9042 9.205C26.8515 7.0875 25.951 5.145 24.3605 3.72167H24.3547Z" fill="#FC6655"/>
<path d="M22.8109 13.516L17.3436 18.9235L16.4255 19.8335C17.0103 21.0527 16.7998 22.5577 15.7823 23.561L17.7354 21.6302L24.3781 15.0618L22.8168 13.516H22.8109Z" fill="url(#paint0_linear_10834_32135)"/>
<path d="M13.5836 4.10083L13.4375 4.24667L14.9987 5.7925L15.1449 5.64667C17.0453 3.76833 20.0217 3.43 22.2028 4.8475L23.7933 3.2725C20.7409 1.015 16.3904 1.32417 13.5778 4.10083H13.5836Z" fill="url(#paint1_linear_10834_32135)"/>
<path d="M21.1386 6.76083C19.8053 5.775 17.9166 5.99667 16.7413 7.16333C16.6419 7.2625 16.484 7.2625 16.3846 7.16333L13.1743 3.99C10.157 1.00917 5.25102 1.00917 2.23373 3.99C2.14017 4.0775 2.05246 4.17083 1.96475 4.27C-0.80695 7.29167 -0.637373 11.9758 2.34483 14.9217L11.0049 23.485C12.2504 24.7158 14.2795 24.8675 15.6069 23.7183C17.0629 22.4583 17.1155 20.2592 15.7706 18.9292L6.91754 10.1733C6.48483 9.7475 6.48483 9.05333 6.91754 8.6275C7.35025 8.20167 8.0461 8.20167 8.47881 8.6275L15.7706 15.8433C16.2033 16.2692 16.8992 16.2692 17.3319 15.8433L21.5011 11.7192C22.9045 10.3308 22.7817 7.98583 21.1269 6.76667L21.1386 6.76083ZM17.3436 12.7458C16.9108 13.1717 16.215 13.1717 15.7823 12.7458L10.1336 7.16333C8.88814 5.9325 6.85907 5.78083 5.5317 6.93C4.07568 8.19 4.0172 10.3892 5.36797 11.7192L14.1801 20.4342C14.6011 20.8542 14.6654 21.5425 14.2678 21.98C13.8409 22.4467 13.11 22.4642 12.6656 22.0208L3.92364 13.3758C1.82441 11.2992 1.62559 7.91583 3.61958 5.73417C5.7539 3.40667 9.40271 3.33667 11.6247 5.53583L17.3553 11.2058C17.788 11.6317 17.788 12.3258 17.3553 12.7517L17.3436 12.7458Z" fill="#FC6655"/>
</g>
<g clip-path="url(#clip1_10834_32135)">
<path d="M44.0021 7.99751C44.8792 8.87251 45.3178 10.1208 45.3178 11.7308V21.0117H41.9028V12.3025C41.9028 10.5292 41.0257 9.64251 39.2773 9.64251C38.4119 9.64251 37.6751 9.95167 37.067 10.5758C36.4589 11.2 36.1606 12.0633 36.1606 13.1658V21.0058H32.7457V7.00584H36.0495V9.01251C37.1138 7.45501 38.5698 6.67917 40.4117 6.67917C41.9262 6.67917 43.125 7.11667 44.0021 7.99751Z" fill="white"/>
<path d="M60.9597 15.0617H50.446C50.5746 16.2575 50.9489 17.1558 51.5745 17.7625C52.2002 18.3692 53.0423 18.6725 54.0948 18.6725C55.6561 18.6725 56.7262 18.0017 57.305 16.6658H60.603C60.2405 18.095 59.4803 19.2325 58.3167 20.0725C57.153 20.9125 55.7379 21.3325 54.0714 21.3325C51.9839 21.3325 50.2939 20.6617 49.0075 19.3258C47.7211 17.99 47.072 16.2167 47.072 14.0058C47.072 11.795 47.7094 10.0275 48.9783 8.68584C50.2647 7.34417 51.9488 6.67917 54.0188 6.67917C56.0888 6.67917 57.8313 7.37334 59.0827 8.76751C60.334 10.1617 60.9597 11.9875 60.9597 14.2508V15.0675V15.0617ZM50.4752 12.6758H57.5273C57.3811 11.6433 57.001 10.8325 56.3812 10.2317C55.7613 9.63084 54.9661 9.33917 53.9837 9.33917C51.9663 9.33917 50.7968 10.4533 50.4694 12.6758H50.4752Z" fill="white"/>
<path d="M124.112 15.0617H113.599C113.727 16.2575 114.101 17.1558 114.727 17.7625C115.353 18.3692 116.195 18.6725 117.247 18.6725C118.809 18.6725 119.879 18.0017 120.458 16.6658H123.756C123.393 18.095 122.633 19.2325 121.469 20.0725C120.306 20.9125 118.89 21.3325 117.224 21.3325C115.136 21.3325 113.446 20.6617 112.16 19.3258C110.874 17.99 110.225 16.2167 110.225 14.0058C110.225 11.795 110.862 10.0275 112.131 8.68584C113.417 7.34417 115.101 6.67917 117.171 6.67917C119.241 6.67917 120.984 7.37334 122.235 8.76751C123.487 10.1617 124.112 11.9875 124.112 14.2508V15.0675V15.0617ZM113.628 12.6758H120.68C120.534 11.6433 120.154 10.8325 119.534 10.2317C118.914 9.63084 118.119 9.33917 117.136 9.33917C115.119 9.33917 113.949 10.4533 113.622 12.6758H113.628Z" fill="white"/>
<path d="M89.4544 18.3984H88.741C88.2498 18.3984 87.9048 18.305 87.706 18.1242C87.5072 17.9434 87.4078 17.6284 87.4078 17.1734V1.75586H83.9812V17.535C83.9812 18.7834 84.3087 19.6934 84.9577 20.2592C85.6126 20.8309 86.6418 21.1167 88.0569 21.1167C88.4077 21.1167 88.9398 21.0934 89.4486 21.0409V18.3984H89.4544Z" fill="white"/>
<path d="M105.663 10.7509C104.874 13.2825 104.207 15.6684 103.547 17.9142C102.722 15.1259 102.056 12.7517 101.43 10.78L100.319 7.00586H96.6935L101.535 21.0059H105.43L110.301 7.00586H106.78L105.669 10.7509H105.663Z" fill="white"/>
<path d="M136.836 14.1983C136.059 13.5275 134.819 13.0375 133.106 12.7342L131.328 12.46C130.492 12.3142 129.89 12.11 129.521 11.8475C129.159 11.585 128.971 11.2175 128.971 10.7508C128.971 9.66583 129.79 9.12333 131.433 9.12333C132.398 9.12333 133.129 9.29833 133.62 9.65416C134.111 10.0042 134.375 10.5992 134.415 11.4333H137.673C137.544 8.26583 135.468 6.685 131.439 6.685C129.58 6.685 128.141 7.05833 127.118 7.81083C126.095 8.56333 125.586 9.59583 125.586 10.92C125.586 13.2358 127.124 14.6475 130.205 15.1492L131.819 15.4175C132.86 15.5983 133.579 15.8258 133.977 16.0942C134.38 16.3683 134.579 16.7533 134.579 17.2608C134.579 18.3808 133.649 18.9408 131.79 18.9408C130.749 18.9408 129.989 18.76 129.504 18.3983C129.018 18.0367 128.732 17.4242 128.644 16.555H125.282C125.463 19.775 127.615 21.385 131.737 21.385C133.725 21.385 135.263 21.0058 136.357 20.2475C137.45 19.4892 138 18.4042 138 16.9925C138 15.7967 137.614 14.8692 136.836 14.1983Z" fill="white"/>
<path d="M93.2143 5.50667C94.3446 5.50667 95.2609 4.59258 95.2609 3.465C95.2609 2.33742 94.3446 1.42333 93.2143 1.42333C92.084 1.42333 91.1677 2.33742 91.1677 3.465C91.1677 4.59258 92.084 5.50667 93.2143 5.50667Z" fill="white"/>
<path d="M95.2258 18.13C95.027 17.9492 94.9276 17.6342 94.9276 17.1792V7.00586H89.4543V9.60753H91.501V17.5292C91.501 18.7775 91.8284 19.6875 92.4775 20.2534C93.1324 20.825 94.1615 21.1109 95.5766 21.1109C95.9275 21.1109 96.4596 21.0875 96.9683 21.035V18.3925H96.2549C95.7638 18.3925 95.4188 18.2992 95.2199 18.1184L95.2258 18.13Z" fill="white"/>
<path d="M64.4448 7.00586H60.5854L65.6727 14.0059L60.5854 21.0059H64.4448L69.5379 14.0059L64.4448 7.00586Z" fill="white"/>
<path d="M70.3507 7.57167L67.6024 11.3517L69.5379 14.0058L72.2804 10.2258L70.3507 7.57167Z" fill="url(#paint2_linear_10834_32135)"/>
<path d="M72.2804 17.7859L69.5379 14.0059L67.6024 16.66L70.3507 20.44L72.2804 17.7859Z" fill="url(#paint3_linear_10834_32135)"/>
<path d="M82.2269 9.60753V7.00586H76.6017C78.0928 7.00586 79.3032 5.79836 79.3032 4.31086V3.50586H75.9058V7.00586H71.3623C70.9881 7.00586 70.6373 7.18669 70.4151 7.49003L70.0642 7.97419L71.9939 10.6284L72.5552 9.85253C72.6663 9.70086 72.8418 9.61336 73.0289 9.61336H75.9058V17.535C75.9058 18.7834 76.2567 19.6934 76.9525 20.2592C77.6484 20.8309 78.7594 21.1167 80.2856 21.1167C80.7417 21.1167 81.1919 21.0817 81.9404 21.0059V18.4042H80.9112C80.3323 18.4042 79.9172 18.3109 79.6716 18.13C79.426 17.9492 79.3032 17.6342 79.3032 17.1792V9.60753H82.2269Z" fill="white"/>
<path d="M70.0584 20.0375L70.7601 21.0058H74.6194L71.9881 17.3833L70.0584 20.0375Z" fill="white"/>
</g>
<defs>
<linearGradient id="paint0_linear_10834_32135" x1="15.7823" y1="18.5414" x2="24.3722" y2="18.5414" gradientUnits="userSpaceOnUse">
<stop offset="0.05" stop-color="#FC6655" stop-opacity="0.05"/>
<stop offset="0.15" stop-color="#FC6655" stop-opacity="0.5"/>
<stop offset="0.25" stop-color="#FC6655" stop-opacity="0.7"/>
<stop offset="0.35" stop-color="#FC6655" stop-opacity="0.8"/>
<stop offset="0.45" stop-color="#FC6655" stop-opacity="0.9"/>
<stop offset="0.55" stop-color="#FC6655" stop-opacity="0.95"/>
<stop offset="0.59" stop-color="#FC6655" stop-opacity="0.98"/>
<stop offset="0.65" stop-color="#FC6655"/>
</linearGradient>
<linearGradient id="paint1_linear_10834_32135" x1="15.7823" y1="6.58746" x2="21.4464" y2="0.921278" gradientUnits="userSpaceOnUse">
<stop stop-color="#FC6655" stop-opacity="0.15"/>
<stop offset="0.1" stop-color="#FC6655" stop-opacity="0.5"/>
<stop offset="0.2" stop-color="#FC6655" stop-opacity="0.7"/>
<stop offset="0.3" stop-color="#FC6655" stop-opacity="0.8"/>
<stop offset="0.4" stop-color="#FC6655" stop-opacity="0.9"/>
<stop offset="0.5" stop-color="#FC6655" stop-opacity="0.95"/>
<stop offset="0.54" stop-color="#FC6655" stop-opacity="0.98"/>
<stop offset="0.6" stop-color="#FC6655"/>
</linearGradient>
<linearGradient id="paint2_linear_10834_32135" x1="68.117" y1="12.32" x2="71.7643" y2="9.24882" gradientUnits="userSpaceOnUse">
<stop stop-color="white" stop-opacity="0.15"/>
<stop offset="0.1" stop-color="white" stop-opacity="0.5"/>
<stop offset="0.2" stop-color="white" stop-opacity="0.7"/>
<stop offset="0.3" stop-color="white" stop-opacity="0.8"/>
<stop offset="0.4" stop-color="white" stop-opacity="0.9"/>
<stop offset="0.5" stop-color="white" stop-opacity="0.95"/>
<stop offset="0.6" stop-color="white"/>
</linearGradient>
<linearGradient id="paint3_linear_10834_32135" x1="68.117" y1="15.6917" x2="71.7643" y2="18.7629" gradientUnits="userSpaceOnUse">
<stop stop-color="white" stop-opacity="0.15"/>
<stop offset="0.1" stop-color="white" stop-opacity="0.5"/>
<stop offset="0.2" stop-color="white" stop-opacity="0.7"/>
<stop offset="0.3" stop-color="white" stop-opacity="0.8"/>
<stop offset="0.4" stop-color="white" stop-opacity="0.9"/>
<stop offset="0.5" stop-color="white" stop-opacity="0.95"/>
<stop offset="0.6" stop-color="white"/>
</linearGradient>
<clipPath id="clip0_10834_32135">
<rect width="26.8983" height="22.75" fill="white" transform="translate(0 1.75)"/>
</clipPath>
<clipPath id="clip1_10834_32135">
<rect width="105.254" height="28" fill="white" transform="translate(32.7457)"/>
</clipPath>
</defs>
</svg>
