<svg width="22" height="24" viewBox="0 0 22 24" fill="none" xmlns="http://www.w3.org/2000/svg">
<path d="M18 22L18 8.86274C18 7.65111 18 7.04529 17.7604 6.76477C17.5525 6.52136 17.2407 6.39218 16.9215 6.4173C16.5538 6.44624 16.1254 6.87462 15.2686 7.73137L13 10" stroke="#7F7F8A" stroke-width="1.5" stroke-linejoin="round"/>
<path d="M10.5125 3.15835C11.3205 2.61964 11.7246 2.35029 12.0596 2.37029C12.3515 2.38772 12.6211 2.53202 12.7975 2.76521C13 3.03288 13 3.51846 13 4.48963L13 22L4 22L4 9.21259C4 8.58645 4 8.27337 4.0863 7.9892C4.1627 7.73762 4.28796 7.50357 4.45491 7.30045C4.64349 7.07101 4.90398 6.89735 5.42496 6.55003L10.5125 3.15835Z" stroke="#7F7F8A" stroke-width="1.5" stroke-linejoin="round"/>
<path d="M8 10H9" stroke="#7F7F8A" stroke-width="1.5" stroke-miterlimit="10" stroke-linecap="round" stroke-linejoin="round"/>
<path d="M8 14H9" stroke="#7F7F8A" stroke-width="1.5" stroke-miterlimit="10" stroke-linecap="round" stroke-linejoin="round"/>
<path d="M8 18H9" stroke="#7F7F8A" stroke-width="1.5" stroke-miterlimit="10" stroke-linecap="round" stroke-linejoin="round"/>
<path d="M2.5 22H19.5" stroke="#7F7F8A" stroke-width="1.5" stroke-miterlimit="10" stroke-linecap="round" stroke-linejoin="round"/>
</svg>
