<svg width="18" height="18" viewBox="0 0 18 18" fill="none" xmlns="http://www.w3.org/2000/svg">
<path d="M14.25 16.5V6.64705C14.25 5.73833 14.25 5.28397 14.0703 5.07357C13.9144 4.89101 13.6805 4.79413 13.4412 4.81297C13.1653 4.83468 12.844 5.15596 12.2015 5.79853L10.5 7.5M6.75 7.5H7.5M6.75 10.5H7.5M6.75 13.5H7.5M2.625 16.5H15.375M10.5 16.5V3.36722C10.5 2.63885 10.5 2.27466 10.3481 2.07391C10.2158 1.89901 10.0136 1.79079 9.7947 1.77772C9.54342 1.76271 9.2404 1.96473 8.63436 2.36876L4.81872 4.91252C4.42798 5.17301 4.23261 5.30325 4.09118 5.47533C3.96597 5.62768 3.87203 5.80321 3.81473 5.99189C3.75 6.20503 3.75 6.43983 3.75 6.90944L3.75 16.5H10.5Z" stroke="white" stroke-width="1.5" stroke-miterlimit="10" stroke-linecap="round" stroke-linejoin="round"/>
</svg>
