<svg width="19" height="18" viewBox="0 0 19 18" fill="none" xmlns="http://www.w3.org/2000/svg">
<path d="M6.5 16.5H12.5M7.25 13.5V16.5M11.75 13.5V16.5M8 13.5H11C13.1002 13.5 14.1503 13.5 14.9525 13.0913C15.6581 12.7317 16.2317 12.1581 16.5913 11.4525C17 10.6503 17 9.6002 17 7.5C17 5.3998 17 4.3497 16.5913 3.54754C16.2317 2.84193 15.6581 2.26825 14.9525 1.90873C14.1503 1.5 13.1002 1.5 11 1.5H8C5.8998 1.5 4.8497 1.5 4.04754 1.90873C3.34193 2.26825 2.76825 2.84193 2.40873 3.54754C2 4.3497 2 5.3998 2 7.5C2 9.6002 2 10.6503 2.40873 11.4525C2.76825 12.1581 3.34193 12.7317 4.04754 13.0913C4.8497 13.5 5.8998 13.5 8 13.5Z" stroke="white" stroke-width="1.5" stroke-linecap="round" stroke-linejoin="round"/>
</svg>
