<svg width="24" height="18" viewBox="0 0 24 18" fill="none" xmlns="http://www.w3.org/2000/svg">
<g clip-path="url(#clip0_858_23453)">
<path d="M7 17V16C7 15.0707 7 14.606 7.07686 14.2196C7.39249 12.6329 8.63288 11.3925 10.2196 11.0769C10.606 11 11.0707 11 12 11V11C12.9293 11 13.394 11 13.7804 11.0769C15.3671 11.3925 16.6075 12.6329 16.9231 14.2196C17 14.606 17 15.0707 17 16V17" stroke="#7F7F8A" stroke-width="1.5" stroke-linecap="round" stroke-linejoin="round"/>
<circle cx="12" cy="4" r="3" stroke="#7F7F8A" stroke-width="1.5"/>
<path d="M1 17V16C1 14.3431 2.34315 13 4 13V13C5.65685 13 7 14.3431 7 16V17" stroke="#7F7F8A" stroke-width="1.5" stroke-linecap="round" stroke-linejoin="round"/>
<circle cx="4" cy="8" r="2" stroke="#7F7F8A" stroke-width="1.5"/>
<path d="M17 17V16C17 14.3431 18.3431 13 20 13V13C21.6569 13 23 14.3431 23 16V17" stroke="#7F7F8A" stroke-width="1.5" stroke-linecap="round" stroke-linejoin="round"/>
<circle cx="20" cy="8" r="2" stroke="#7F7F8A" stroke-width="1.5"/>
</g>
<defs>
<clipPath id="clip0_858_23453">
<rect width="24" height="18" fill="white"/>
</clipPath>
</defs>
</svg>
